<?xml version="1.0" encoding="utf-8"?>
<!-- Generator: Adobe Illustrator 25.4.1, SVG Export Plug-In . SVG Version: 6.00 Build 0)  -->
<svg version="1.1" id="Capa_1" xmlns="http://www.w3.org/2000/svg" xmlns:xlink="http://www.w3.org/1999/xlink" x="0px" y="0px"
	 viewBox="0 0 12.4 11.6" style="enable-background:new 0 0 12.4 11.6;" xml:space="preserve">
<style type="text/css">
	.st0{fill:#EDF5F7;}
</style>
<g>
	<path class="st0" d="M0,3.4h12.4v0.2c0,2.2,0,4.5,0,6.7c0,0.6-0.4,1.2-1.1,1.3c-0.1,0-0.2,0-0.3,0c-3.3,0-6.6,0-9.9,0
		c-0.6,0-1.1-0.4-1.1-1.1c0-0.4,0-0.8,0-1.3C0,7.4,0,5.5,0,3.5V3.4z M9.9,9V8.6l0,0c0-0.2-0.1-0.3-0.3-0.3c-0.3,0-0.6,0-0.9,0
		c-0.2,0-0.3,0.1-0.3,0.2c0,0.3,0,0.6,0,0.9c0,0.2,0.1,0.3,0.3,0.3c0.3,0,0.6,0,0.9,0c0.2,0,0.3-0.1,0.3-0.3C9.9,9.4,9.9,9.2,9.9,9z
		 M9.1,6.3c0.1,0,0.3,0,0.4,0c0.2,0,0.3-0.1,0.3-0.3c0-0.3,0-0.6,0-0.9c0-0.2-0.1-0.3-0.3-0.3c-0.3,0-0.6,0-0.9,0
		C8.4,4.8,8.3,4.9,8.3,5c0,0.3,0,0.6,0,0.9c0,0.2,0.1,0.3,0.3,0.3C8.8,6.3,8.9,6.3,9.1,6.3z M6.8,5.6L6.8,5.6c0-0.2,0-0.3,0-0.5
		S6.7,4.7,6.5,4.7c-0.3,0-0.6,0-0.9,0C5.4,4.8,5.3,4.9,5.3,5.1c0,0.3,0,0.6,0,0.9c0,0.1,0.1,0.2,0.3,0.2c0.3,0,0.6,0,1.1,0
		c0.2,0,0.2-0.1,0.3-0.3C6.8,5.9,6.8,5.8,6.8,5.6z M6.8,9L6.8,9V8.6l0,0c0-0.2-0.1-0.3-0.3-0.3c-0.3,0-0.6,0-0.9,0
		c-0.2,0-0.3,0.1-0.3,0.3c0,0.3,0,0.5,0,0.8c0,0.2,0.1,0.3,0.3,0.3c0.3,0,0.6,0,0.9,0c0.2,0,0.3-0.1,0.3-0.3C6.8,9.4,6.8,9.2,6.8,9
		L6.8,9z M2.9,4.8c-0.1,0-0.3,0-0.4,0c-0.2,0-0.3,0.1-0.3,0.3c0,0.3,0,0.6,0,0.9c0,0.1,0.1,0.2,0.3,0.2c0.3,0,0.6,0,0.9,0
		c0.2,0,0.3-0.1,0.3-0.3c0-0.3,0-0.6,0-0.9c0-0.2-0.1-0.3-0.3-0.3C3.3,4.7,3.2,4.8,2.9,4.8L2.9,4.8z M2.9,8.3H2.5
		c-0.2,0-0.3,0.1-0.3,0.3c0,0.3,0,0.6,0,0.9c0,0.2,0.1,0.3,0.3,0.3c0.3,0,0.6,0,0.9,0c0.2,0,0.3-0.1,0.3-0.3c0-0.3,0-0.6,0-0.9
		c0-0.2-0.1-0.3-0.3-0.3C3.3,8.3,3.2,8.3,2.9,8.3L2.9,8.3z"/>
	<path class="st0" d="M9.9,0c0.5,0,0.9,0,1.4,0c0.5,0,0.9,0.5,1.1,0.9v0.1c0,0.4,0,0.9,0,1.4c0,0,0,0,0,0.1H0V2.4C0,2,0,1.6,0,1.1
		S0.3,0.1,0.7,0c0.1,0,0.1,0,0.2,0c0.4,0,0.8,0,1.3,0c0,0.1,0,0.1,0,0.1c0,0.3,0,0.7,0,1.1c0,0.2,0.1,0.3,0.3,0.3c0.1,0,0.1,0,0.2,0
		c0.1,0,0.1-0.1,0.2-0.1C2.9,1.3,3,1.2,3,1.2c0-0.3,0-0.6,0-0.9V0h6.2v0.1c0,0.3,0,0.6,0,0.9c0,0.2,0.2,0.4,0.4,0.4
		c0.2,0,0.4-0.2,0.4-0.4c0-0.3,0-0.6,0-0.9L9.9,0z"/>
</g>
</svg>
