<svg width="14" height="14" viewBox="0 0 14 14" fill="none" xmlns="http://www.w3.org/2000/svg">
<path d="M12.8269 6.02381L7.44847 1.11177C7.18401 0.870392 6.79023 0.870862 6.52667 1.11271L1.17118 6.02498C0.684455 6.47151 0.985961 7.31163 1.63275 7.31163C2.01957 7.31163 2.3332 7.64029 2.3332 8.04588V12.3347C2.3332 12.7403 2.64705 13.0687 3.03387 13.0687H5.4888V9.30995C5.4888 9.08056 5.66593 8.89494 5.88459 8.89494H8.11457C8.33323 8.89494 8.51059 9.08056 8.51059 9.30995V13.069H10.842C11.2291 13.069 11.5427 12.7405 11.5427 12.3349V8.04612C11.5427 7.64053 11.8563 7.31186 12.2432 7.31186H12.3666C13.0141 7.31139 13.3152 6.46963 12.8269 6.02381Z" fill="#EDF5F7"/>
</svg>
