<?xml version="1.0" encoding="utf-8"?>
<!-- Generator: Adobe Illustrator 25.4.1, SVG Export Plug-In . SVG Version: 6.00 Build 0)  -->
<svg version="1.1" id="Capa_1" xmlns="http://www.w3.org/2000/svg" xmlns:xlink="http://www.w3.org/1999/xlink" x="0px" y="0px"
	 viewBox="0 0 30 30" style="enable-background:new 0 0 30 30;" xml:space="preserve">
<style type="text/css">
	.st0{fill:#ffffff;}
</style>
<path class="st0" d="M0,15.9c0-0.6,0-1.2,0-1.8c0-0.1,0-0.2,0.1-0.3c0.1-1.4,0.4-2.7,0.8-3.9C3.5,2.7,11.1-1.4,18.6,0.4
	c7.7,1.9,12.6,9.6,11.1,17.4c-0.6,3-1.9,5.6-4.1,7.7c-2.2,2.3-4.9,3.7-8.1,4.2c-0.6,0.1-1.1,0.2-1.7,0.2c-0.6,0-1.2,0-1.8,0
	c-0.4,0-0.8-0.1-1.2-0.1c-3-0.4-5.6-1.6-7.8-3.6c-2.6-2.3-4.3-5.2-4.9-8.7C0.1,17,0.1,16.4,0,15.9z M14.4,17c-0.1,0-0.2,0-0.3,0
	c-0.5,0.1-1,0.1-1.4,0.2c-3.5,0.9-6,3-7.4,6.3c-0.1,0.2,0,0.3,0.1,0.4c3.1,3.2,6.9,4.6,11.3,4.1c3.2-0.4,5.8-1.8,8-4.1
	c0.1-0.1,0.2-0.3,0.1-0.5c-0.4-0.9-0.8-1.7-1.4-2.4c-1.6-2.1-3.7-3.4-6.2-3.9c-0.5-0.1-1-0.2-1.5-0.2c3.3-0.5,5-3.4,4.6-6
	c-0.4-2.6-2.7-4.6-5.3-4.5c-2.7,0.1-4.9,2.1-5.1,4.8C9.5,13.9,11.4,16.6,14.4,17z"/>
</svg>
