<?xml version="1.0" encoding="utf-8"?>
<!-- Svg Vector Icons : http://www.onlinewebfonts.com/icon -->
<!DOCTYPE svg PUBLIC "-//W3C//DTD SVG 1.1//EN" "http://www.w3.org/Graphics/SVG/1.1/DTD/svg11.dtd">
<svg width="180px" version="1.1" xmlns="http://www.w3.org/2000/svg" xmlns:xlink="http://www.w3.org/1999/xlink" x="0px" y="0px" viewBox="0 0 1000 1000" enable-background="new 0 0 1000 1000" xml:space="preserve">
<g><g><path fill="#42788f" d="M896.2,22.1C888.1,14,878.6,10,867.5,10h-735c-11.1,0-20.6,4-28.7,12.1c-8.1,8.1-12.1,17.7-12.1,28.7v490c0,36.6,7.1,72.8,21.4,108.8c14.2,35.9,31.9,67.8,53,95.7c21.1,27.9,46.1,55,75.3,81.4c29.1,26.4,56,48.3,80.7,65.7c24.7,17.4,50.4,33.9,77.2,49.4c26.8,15.5,45.8,26.1,57.1,31.6c11.3,5.5,20.3,9.8,27.1,12.8c5.1,2.6,10.6,3.8,16.6,3.8c6,0,11.5-1.3,16.6-3.8c6.8-3,15.8-7.2,27.1-12.8c11.3-5.5,30.3-16.1,57.1-31.6c26.8-15.5,52.5-32,77.2-49.4c24.7-17.5,51.6-39.3,80.7-65.7c29.1-26.4,54.2-53.5,75.3-81.4c21.1-27.9,38.7-59.8,53-95.7c14.3-35.9,21.4-72.2,21.4-108.8v-490C908.3,39.8,904.3,30.2,896.2,22.1z M785.8,540.8c0,74.9-50,151.4-149.9,229.7c-40,31.5-85.3,60.6-135.9,87.4V132.5h285.8V540.8z"/></g><g></g><g></g><g></g><g></g><g></g><g></g><g></g><g></g><g></g><g></g><g></g><g></g><g></g><g></g><g></g></g>
</svg>